# xmcd
#
# Track frame offsets:
#	150
#	18438
#	33331
#	52429
#	66703
#	86741
#	103860
#	118358
#	129454
#	148255
#	162494
#	171950
#	187274
#	206114
#	221289
#
# Disc length: 3149 seconds
# Revision: 0
# Processed by: cddbd v1.5.2PL0 Copyright (c) Steve Scherf et al.
# Submitted via: dBpowerAMP V12.0
#
DISCID=fb0c4b0f
DTITLE=Apple Boutique - Paraphernalia
DYEAR=1987
DGENRE=Indy Rock
TTITLE0=Love Resistance (12")
TTITLE1=I Don't Even Believe In You (12")
TTITLE2=The Ballad Of Jet Harris (12")
TTITLE3=Regal Like An Eagle (rough mix, late 1988)
TTITLE4=Make Your Mark On Me (rough mix, late 1988)
TTITLE5=Hey Stranger (demo 1988)
TTITLE6=Ocean Ride(rec.10 Feb 1989)
TTITLE7=Can't Help Losing Sleep (Over You)(rec.26 Oct.1988)
TTITLE8=April Fool Jewel (rec. 10 Feb 1989)
TTITLE9=Call Her Name (home demo 1987)
TTITLE10=She Moves In Different Circles (home demo 1987)
TTITLE11=Feel The Way You Feel (home demo 1987)
TTITLE12=I Don't Even Believe In You (home demo 1987)
TTITLE13=The Ballad Of Jet Harris (home demo 1987)
TTITLE14=Love Resistance (home demo 1987)
EXTD=
EXTT0=
EXTT1=
EXTT2=
EXTT3=
EXTT4=
EXTT5=
EXTT6=
EXTT7=
EXTT8=
EXTT9=
EXTT10=
EXTT11=
EXTT12=
EXTT13=
EXTT14=
PLAYORDER=
